<?xml version="1.0" encoding="utf-8"?>
<!-- Generator: Adobe Illustrator 19.0.0, SVG Export Plug-In . SVG Version: 6.00 Build 0)  -->
<svg version="1.1" id="Layer_1" xmlns="http://www.w3.org/2000/svg" xmlns:xlink="http://www.w3.org/1999/xlink" x="0px" y="0px"
	 viewBox="0 0 1021.5 117.6" style="enable-background:new 0 0 1021.5 117.6;" xml:space="preserve">
<g id="XMLID_66_">
	<path fill="#fff"  id="XMLID_67_" d="M12,8.1h23.5v101.5H12V8.1z"/>
</g>
<g id="XMLID_63_">
	<path fill="#fff" id="XMLID_64_" d="M152.1,108.9L152,48l-29.9,50.2h-10.6L81.8,49.3v59.6h-22V7.4h19.4l38,63.1l37.4-63.1h19.3l0.3,101.5H152.1
		z"/>
</g>
<g id="XMLID_59_">
	<path  fill="#fff" id="XMLID_60_" d="M261.5,87.2h-47.1l-9,21.8h-24.1L226.6,7.4h23.2l45.4,101.5h-24.6L261.5,87.2z M254.2,69.3l-16.1-38.9
		L222,69.3H254.2z"/>
</g>
<g id="XMLID_56_">
	<path fill="#fff" id="XMLID_57_" d="M378.6,57.6h21.5v41.2c-5.5,4.2-11.9,7.3-19.1,9.6s-14.5,3.3-21.9,3.3c-10.5,0-20-2.2-28.4-6.7
		c-8.4-4.5-15-10.7-19.8-18.7c-4.8-8-7.2-17-7.2-27c0-10.1,2.4-19.1,7.2-27s11.4-14.2,19.9-18.7c8.5-4.5,18.1-6.7,28.7-6.7
		c8.9,0,17,1.5,24.2,4.5c7.3,3,13.3,7.3,18.3,13.1l-15.1,13.9c-7.3-7.6-16-11.5-26.2-11.5c-6.5,0-12.2,1.4-17.3,4.1
		c-5,2.7-8.9,6.5-11.7,11.5c-2.8,4.9-4.2,10.6-4.2,17c0,6.3,1.4,11.9,4.2,16.8c2.8,4.9,6.7,8.8,11.7,11.5c5,2.8,10.7,4.1,17,4.1
		c6.8,0,12.9-1.5,18.3-4.4V57.6z"/>
</g>
<g id="XMLID_53_">
	<path fill="#fff" id="XMLID_54_" d="M504.6,90.7v18.8H426V8.1h76.7v18.9h-53.4v22h47.1v18.3h-47.1v23.5H504.6z"/>
</g>
<g id="XMLID_69_">
	<path fill="#fff" id="XMLID_70_" d="M610.8,17.5c7.3,6,10.9,14.4,10.9,25.2c0,10.6-3.6,19-10.9,25c-7.3,6-17.3,9.1-30,9.1h-29v33.2h-7.4V8.4
		h36.4C593.5,8.4,603.5,11.4,610.8,17.5z M605.5,62.9c5.7-4.7,8.6-11.5,8.6-20.3c0-8.8-2.9-15.6-8.6-20.4c-5.7-4.8-14-7.2-24.8-7.2
		h-29v55h29C591.6,70,599.8,67.7,605.5,62.9z"/>
</g>
<g id="XMLID_73_">
	<path fill="#fff" id="XMLID_74_" d="M702.1,82h-58.9l-12.9,28.6h-8L669.1,9.1h7.4l46.7,101.5h-8L702.1,82z M699.4,75.8l-26.7-58.6l-26.5,58.6
		H699.4z"/>
</g>
<g id="XMLID_77_">
	<path fill="#fff" id="XMLID_78_" d="M750.1,106.8c-6.7-2.6-12-5.9-15.7-9.9l3.3-5.5c3.6,3.8,8.4,6.8,14.4,9.2c6,2.4,12.4,3.6,19.1,3.6
		c9.7,0,17-1.8,21.9-5.5c4.9-3.7,7.4-8.5,7.4-14.4c0-4.5-1.3-8.2-3.9-10.9c-2.6-2.7-5.8-4.8-9.7-6.2c-3.9-1.5-9.1-2.9-15.7-4.5
		c-7.4-1.8-13.4-3.6-17.9-5.4c-4.5-1.7-8.3-4.4-11.5-8c-3.1-3.6-4.7-8.5-4.7-14.6c0-4.9,1.3-9.4,3.9-13.6c2.6-4.1,6.6-7.4,12-9.8
		c5.4-2.4,12.1-3.6,20.1-3.6c5.6,0,11.1,0.8,16.5,2.5c5.4,1.6,10.1,3.9,14.1,6.7l-2.8,5.9c-4.1-2.8-8.5-4.9-13.4-6.4
		c-4.9-1.5-9.7-2.2-14.4-2.2c-9.4,0-16.5,1.9-21.3,5.7c-4.8,3.8-7.3,8.7-7.3,14.6c0,4.5,1.3,8.2,3.9,10.9c2.6,2.7,5.8,4.8,9.7,6.2
		c3.9,1.5,9.1,3,15.8,4.6c7.4,1.8,13.4,3.6,17.8,5.4c4.4,1.7,8.2,4.4,11.4,7.9c3.1,3.5,4.7,8.3,4.7,14.3c0,4.9-1.3,9.4-4,13.5
		c-2.7,4.1-6.7,7.3-12.3,9.7c-5.5,2.4-12.3,3.6-20.3,3.6C763.9,110.6,756.8,109.4,750.1,106.8z"/>
</g>
<g id="XMLID_80_">
	<path fill="#fff" id="XMLID_81_" d="M897.8,81.3h-58.9L826,109.9h-8L864.7,8.4h7.4l46.7,101.5h-8L897.8,81.3z M895.1,75.1l-26.7-58.6
		l-26.5,58.6H895.1z"/>
</g>
<g id="XMLID_84_">
	<path fill="#fff" id="XMLID_85_" d="M942.7,8.4h7.4v94.8h58.4v6.7h-65.8V8.4z"/>
</g>
</svg>
