<svg id="Layer_1" data-name="Layer 1" xmlns="http://www.w3.org/2000/svg" viewBox="0 0 1066.83 307.28"><defs><style>.cls-1{fill:#231f20;}</style></defs><path class="cls-1" d="M149.53,46a111,111,0,1,0,111,111.05A111.05,111.05,0,0,0,149.53,46Zm58.93,161.88a17.49,17.49,0,0,1-17.66,0l-58.54-33.69,10.3-6L195.93,199a7.36,7.36,0,0,0,11-6.39l-.09-77.74-111,64.3a9.33,9.33,0,0,1-14-8.07l0-43.33a17.66,17.66,0,0,1,26.46-15.33l27.24,15.69-10.29,6-22.08-12.72a7.36,7.36,0,0,0-11,6.39l.06,41.64,111-64.29a9.21,9.21,0,0,1,9.31,0,9.25,9.25,0,0,1,4.68,8.06l.09,79.45A17.44,17.44,0,0,1,208.46,207.91Z"/><path class="cls-1" d="M349.05,198.81,312.41,139H312v59.81H295.84V115.36h19.88l36.09,58.74h.46V115.36h16.11v83.45Z"/><path class="cls-1" d="M397.88,114.19v14H381.52v-14Zm0,22.74v61.88H381.52V136.93Z"/><path class="cls-1" d="M425.92,146.41h.46c3.29-6.38,9.51-10.92,18.61-10.92a18,18,0,0,1,4.34.5V151.3a52.13,52.13,0,0,0-6.45-.47c-9.31,0-16.25,4.09-16.25,16.74v31.24H410.27V136.93h15.65Z"/><path class="cls-1" d="M475.49,198.81,453,136.93h17.72l14.38,43.86h.47l14.49-43.86h17.37l-22.68,61.88Z"/><path class="cls-1" d="M560.75,198.81c-1.06-1.22-1.78-4.38-1.78-8.59-3.6,6.65-12.1,10-20.45,10-10.85,0-20.61-6.85-20.61-18.34,0-13.28,9.41-18.28,25.68-20.16,12.18-1.46,15.3-3.27,15.3-7,0-4.64-3.38-7.6-10.8-7.6-5.7,0-10.74,3-12.67,9.18l-15.13-2.29c2.72-11.68,13.59-18.59,28.23-18.59,18.65,0,26.72,8.24,26.72,20v30.88c0,6.45.11,9.91,1.63,12.43Zm-1.86-30.48c-2,1.65-7.47,2.49-13.42,3.35s-10.9,3.74-10.9,9.45c0,5,3.48,7.85,9,7.85,6.59,0,15.36-4,15.36-14.24Z"/><path class="cls-1" d="M603.23,145.16c4.22-6,10.7-9.67,19.54-9.67,11.84,0,21.78,6.87,21.78,22.58v40.74H628.19V162.27c0-10-4.13-13.57-11.58-13.57-6.81,0-13.13,5.39-13.13,16.42v33.69H587.12V136.93h15.65v8.23Z"/><path class="cls-1" d="M728.31,140.05c-1.61-8.76-7.84-13.37-17.5-13.37-9,0-14.6,4.43-14.6,10.51,0,5.86,5,7.82,11.65,9.41l13.72,3.28c12.91,3.23,26.12,6.63,26.12,25.64,0,17.26-15.59,25.16-34.25,25.16-20.42,0-35-9.62-37.39-27.71l17.34-1.74c1.3,11.85,10.06,16.09,20.28,16.09,9.41,0,16.18-4.12,16.18-11.21S724.42,167.05,716,165l-13.64-3.45c-11.44-2.94-23.57-7-23.57-23.43,0-15.68,14.11-24.58,32.52-24.58,18.59,0,30.66,9,34.09,25.34Z"/><path class="cls-1" d="M785.62,186.1c1.65,0,3.72,0,5.22-.08v12.79c-1.57.15-6.71.23-10.73.23-12.6,0-18.07-2.74-18.07-14.95V147.94H752.2v-11H762V119.68h16.35v17.25h12.9v11h-12.9V180c0,5.52,2.14,6.1,7.22,6.1Z"/><path class="cls-1" d="M841.3,190.58c-4.21,6-10.7,9.67-19.53,9.67-11.85,0-21.78-6.88-21.78-22.58V136.93h16.35v36.54c0,10,4.14,13.57,11.59,13.57,6.8,0,13.13-5.4,13.13-16.42V136.93h16.35v61.88H841.77v-8.23Z"/><path class="cls-1" d="M912.15,144.15h.47v-30H929v84.62H913.33v-8.08h-.47c-3.72,6.51-10.86,9.52-19,9.52-15.74,0-27.22-12.53-27.22-32.34s11.48-32.42,26.94-32.42C902.3,135.49,908.68,138.84,912.15,144.15Zm1.37,23.76c0-13-5.95-19.89-15.06-19.89s-15.13,6.84-15.13,19.89,5.91,19.85,15.13,19.85S913.52,180.91,913.52,167.91Z"/><path class="cls-1" d="M957.19,114.19v14H940.84v-14Zm0,22.74v61.88H940.84V136.93Z"/><path class="cls-1" d="M1030.16,167.91c0,19.81-12.05,32.34-31.56,32.34S967,187.72,967,167.91s12-32.42,31.65-32.42S1030.16,148.06,1030.16,167.91Zm-16.67,0c0-13.29-5.79-20.14-14.89-20.14s-15,6.85-15,20.14,5.79,20.05,15,20.05S1013.49,181.2,1013.49,167.91Z"/></svg>